<?xml version="1.0" encoding="UTF-8"?>
<svg id="a" data-name="Layer 1" xmlns="http://www.w3.org/2000/svg" viewBox="0 0 1595.4 1290.26">
  <path d="M75.44,395.53c20.14-20.48,46.32-34.78,74.94-38.65,50.03-6.76,99.16-7.88,149.22-4.87,24.79,1.49,47.88,6.38,70.78,15.04,8.48,3.21,15.28,9.14,20.97,15.96l68.91,82.6c8.11,9.72,17.68,22.47,28.87,28,40.72,20.11,99.81,27.17,142.77,43.04l67.87-76.12,183-204.05c3.04-3.39,9.06-4.06,11.85-1.72,3.51,2.95,3.47,9.01-.23,13.3l-241.98,280.84c12.05,10.41,22.3,22.29,21.31,38.51-1.15,18.89-9.77,39.08-25.16,50.75-14.38,10.9-34.03,12.64-51.75,9.51-48.96-8.64-95.69-20.87-143.31-34.91-10.38-3.06-18.69-9.44-27.2-15.6-17.34-16.27-32.25-32.48-48.96-51.87l12.84,200.47,900.46.02c-1.08-12.35,4.05-24.11,15.5-24.08l110.99.31c10.33.03,12.8,15.16,12.82,23.62l117.92.15-.12-719.31-1245.24-.26-.5,43.31c46.94,22.34,76.92,67.54,79.57,120,3.42,67.92-43.62,127.39-108.17,142.37-66.78,15.5-135.84-19.26-161.6-83.74-20.53-51.39-8.96-110.3,29.58-149.69,34.98-35.74,84.45-49.35,134.24-38.75l.57-46.38c.09-7.29,4.16-13.35,12.92-13.35h1271.58c7.75,0,13.8,6.15,13.8,13.81l.1,732.53c7.16-.13,12.64.13,16.21,2.05,3.18,1.71,4.37,8.72,4.39,13.38l.21,53.93c.03,7.09-5.39,12.1-13.21,12.1l-274.29-.23-291.82.04-358.82-.09-263.92-.16,8.46,344.99c.83,33.89,2.17,89.4-28.97,107.59-36.02,21.05-85.86,4.54-102.05-35.56-4.91-12.17-5.4-25.14-6.13-38.5l-15.06-275.16c1.05-5.15-.59-3.39-2.74-.55l-6.32,119.79-5.08,174.97c-.53,18.14-9.27,35.62-20.15,48.86-20.05,24.41-78.07,21.72-100.44-8.38-8.23-11.08-13.74-26.27-13.92-40.9l-1.86-149.83-.22-259.38c-9.85,12.29-23.13,18.81-38.69,18.28C18.35,832.16.02,795.83,0,757.89c-.03-59.92-.24-118.91,8.68-178.36,7.3-48.65,25.44-93.07,40.66-139.27,5.54-16.81,12.91-31.32,26.1-44.73ZM356.17,195.28c0-63.11-51.16-114.27-114.27-114.27s-114.27,51.16-114.27,114.27,51.16,114.27,114.27,114.27,114.27-51.16,114.27-114.27ZM278.03,995.39l10.87,215.65c1.18,23.35,11.8,43.88,35.42,51.18,8.74,2.7,20.51.92,30.08-.91,19.56-3.73,23.1-39.75,22.7-56.36l-7.35-306.54-3.78-142.76-13.7-245.08c-.4-7.07,2.63-12.61,9.16-14.27,5.89-1.5,10.51,2.47,14.28,7.63,18.03,24.67,37.81,47.23,59.39,68.83,8.61,8.62,18.74,14.64,30.47,18.14,45.67,13.6,90.79,24.09,137.79,33.15,11.23,2.17,24.09,1.14,32.74-6.41,9.01-7.87,15.28-21.83,13.14-34.23-1.52-8.83-11.02-15.36-18.45-19.55-28.97-16.33-110.01-26.2-153.17-49.13-19.12-10.16-32.83-30.49-46.41-46.91l-54.81-66.27c-5.95-7.19-13.4-12.61-22.7-15.49-55.15-17.05-134.84-12.21-192.91-7.1-36.57,3.22-74.73,25.94-87.51,62.61-16.97,48.71-34.68,96.76-42.31,148.35-8.58,57.99-7.51,115.4-7.12,173.74.07,10.54,3.87,21.22,8.57,29.75,8.39,15.21,29.21,22.05,43.47,11.16,9.49-7.25,14.47-20.88,14.54-33.13.3-54.28.9-106.96,6.7-160.92,2.31-21.43,7.38-40.78,12.88-61.7l9.07-34.49c.3-1.16,2.77-3.14,3.58-3.74,6.85-5,4.37,95.2,4.19,103.77-3.95,194.42-4.14,386.82-1.16,580.95.21,13.91-.42,25.64,2.06,38.3,7.87,40.14,58.62,33.47,66.34,27.06,13.75-11.4,18.1-28.3,18.24-45.97.83-103.93,6.13-287.11,23.83-386.17,1.35-7.55,6.31-12.9,13.17-13,6.48-.1,12.63,4.63,13.54,12.4,6.57,56.15,12.28,110.76,15.14,167.47ZM1414.55,751.52l-1.82-17.53-106.4-.13-.1,18.31,108.32-.65ZM1574.55,766.99l-1182.29.02v39.06s1182.29-.02,1182.29-.02v-39.06Z"/>
</svg>